<svg width="24" height="24" viewBox="0 0 24 24" fill="none" xmlns="http://www.w3.org/2000/svg">
<g clip-path="url(#clip0_274_1577)">
<path d="M2.40874 4.36444H7.09179C7.09179 4.66117 7.12125 4.95678 7.18123 5.24369C7.23794 5.52293 7.32302 5.79783 7.43542 6.06403C7.54561 6.32257 7.68086 6.57236 7.83687 6.80471C8.00597 7.0545 8.34304 7.11995 8.59391 6.95197C8.8437 6.78287 8.90915 6.44473 8.74117 6.19494C8.62336 6.02042 8.52191 5.83388 8.43902 5.63967C8.35613 5.44004 8.29176 5.23387 8.24921 5.02443C8.2056 4.80951 8.18269 4.58698 8.18269 4.36444C8.18269 4.14191 8.2056 3.91937 8.24921 3.70445C8.29176 3.49501 8.35613 3.28884 8.43902 3.09141C8.52191 2.89505 8.62229 2.70959 8.7401 2.53507C8.85791 2.36055 8.99209 2.19799 9.13935 2.05073C9.28882 1.90239 9.45245 1.76821 9.62589 1.6504C9.80041 1.53259 9.98695 1.43114 10.1812 1.34825C10.3797 1.26424 10.5859 1.20098 10.7953 1.15844C11.2262 1.07008 11.6844 1.07008 12.1153 1.15844C12.3236 1.20098 12.5309 1.26536 12.7283 1.34825C12.9247 1.43114 13.1101 1.53151 13.2846 1.64933C13.4592 1.76714 13.6217 1.90132 13.769 2.04858C13.9173 2.19692 14.0515 2.36055 14.1693 2.534C14.2871 2.70852 14.3886 2.89505 14.4715 3.08926C14.5555 3.28781 14.6187 3.49399 14.6613 3.70343C14.7049 3.91942 14.7278 4.14196 14.7278 4.36449C14.7278 4.58703 14.7049 4.80956 14.6613 5.02448C14.6187 5.23285 14.5543 5.4401 14.4715 5.63752C14.3886 5.83388 14.2882 6.01934 14.1693 6.19386C14.0013 6.44365 14.0668 6.78293 14.3166 6.9509C14.4104 7.01415 14.5162 7.04361 14.6209 7.04361C14.7966 7.04361 14.9678 6.95959 15.0736 6.80364C15.2307 6.57236 15.3659 6.32257 15.4761 6.06183C15.5885 5.79676 15.6736 5.52186 15.7303 5.24369C15.7892 4.95678 15.8187 4.66117 15.8187 4.36444H20.5017L19.2516 5.61456C19.0389 5.82728 19.0389 6.1731 19.2516 6.38582C19.3574 6.49274 19.4971 6.54618 19.6367 6.54618C19.7764 6.54618 19.9159 6.49274 20.0229 6.38689L22.2035 4.20628C22.2536 4.15612 22.294 4.09502 22.3224 4.02849C22.378 3.89539 22.378 3.74485 22.3224 3.6118C22.2951 3.54415 22.2547 3.48417 22.2035 3.43401L20.0229 1.2534C19.8102 1.04068 19.4643 1.04068 19.2516 1.2534C19.0389 1.46611 19.0389 1.81193 19.2516 2.02465L20.5017 3.2737H15.6638C15.6104 3.0686 15.558 2.86243 15.4751 2.665C15.3649 2.40539 15.2296 2.15555 15.0725 1.9232C14.9165 1.69305 14.7377 1.47593 14.5402 1.27743C14.3428 1.08107 14.1268 0.902157 13.8955 0.745074C13.6642 0.58799 13.4144 0.45274 13.1537 0.342547C12.8886 0.230205 12.6137 0.145118 12.3355 0.0883595C11.7618 -0.0294532 11.1509 -0.0294532 10.5771 0.0883595C10.2978 0.145067 10.0229 0.230154 9.75675 0.342547C9.49714 0.454888 9.2473 0.590189 9.01494 0.747272C8.78479 0.903282 8.56768 1.08215 8.36917 1.27963C8.17282 1.47706 7.9939 1.69305 7.83682 1.92433C7.68081 2.15668 7.54556 2.40647 7.43429 2.66613C7.3514 2.86248 7.29904 3.06865 7.24668 3.27375H2.40874L3.65886 2.02363C3.87158 1.81091 3.87158 1.46509 3.65886 1.25237C3.44615 1.03966 3.10033 1.03966 2.88761 1.25237L0.706999 3.43283C0.656836 3.48299 0.61644 3.5441 0.588112 3.61062C0.532478 3.74372 0.532478 3.89426 0.588112 4.02731C0.615366 4.09496 0.655762 4.15494 0.706999 4.20511L2.88761 6.38572C2.99453 6.49264 3.13413 6.54607 3.27377 6.54607C3.41342 6.54607 3.55301 6.49264 3.65994 6.38679C3.87265 6.173 3.87265 5.82825 3.65994 5.61446L2.40874 4.36444Z" fill="white"/>
<path d="M21.8207 12.0363C21.248 11.8924 20.6513 11.9895 20.1822 12.26V11.9676C20.1822 10.7699 19.2037 9.79683 18.0005 9.79683C17.6034 9.79683 17.2303 9.90262 16.9096 10.0881V9.79683C16.9096 8.59359 15.9311 7.61509 14.7279 7.61509C14.3308 7.61509 13.9577 7.72201 13.637 7.90855V4.35341C13.637 3.15672 12.6585 2.18262 11.4553 2.18262C10.2521 2.18262 9.27356 3.15677 9.27356 4.35341V11.1473C8.96594 10.9749 8.60923 10.8767 8.22634 10.8767C7.54457 10.8767 6.97402 11.1211 6.57476 11.5825C6.09804 12.1345 5.90388 12.9723 6.03913 13.8821C6.62058 17.6936 8.00703 20.905 10.1582 23.4271C10.4691 23.7914 10.9273 23.9998 11.4149 23.9998H19.9563C20.6174 23.9998 21.2097 23.6136 21.4628 23.0137C22.6987 20.0793 23.4241 16.9027 23.4536 14.3021C23.4667 13.2134 22.7948 12.2818 21.8207 12.0363ZM20.4571 22.5893C20.3753 22.7835 20.1789 22.909 19.9553 22.909H11.4139C11.2481 22.909 11.0899 22.8392 10.9884 22.7202C8.96926 20.3542 7.66678 17.326 7.11699 13.7196C7.0297 13.1349 7.13555 12.6026 7.3995 12.2949C7.58931 12.0746 7.85986 11.9677 8.22419 11.9677C8.81106 11.9677 9.27142 12.4465 9.27142 13.0585C9.27142 13.3596 9.51578 13.604 9.81686 13.604C10.1179 13.604 10.3623 13.3596 10.3623 13.0585V4.35341C10.3645 3.76869 10.8641 3.27346 11.4553 3.27346C12.0466 3.27346 12.5462 3.76869 12.5462 4.35341V9.79678C12.5462 10.0979 12.7906 10.3422 13.0916 10.3422C13.3927 10.3422 13.6371 10.0979 13.6371 9.79678C13.6371 9.1957 14.1269 8.70594 14.7279 8.70594C15.329 8.70594 15.8188 9.19575 15.8188 9.79678V11.9676C15.8188 12.2686 16.0631 12.513 16.3642 12.513C16.6653 12.513 16.9097 12.2686 16.9097 11.9676C16.9097 11.3818 17.4093 10.8876 18.0005 10.8876C18.5917 10.8876 19.0913 11.3829 19.0913 11.9676V14.1384C19.0913 14.4394 19.3357 14.6838 19.6368 14.6838C19.9379 14.6838 20.1822 14.4394 20.1822 14.1384C20.1822 13.4609 20.8706 12.9275 21.5534 13.0933C22.029 13.2133 22.3694 13.7162 22.3628 14.2889C22.3355 16.7183 21.6232 19.8218 20.4571 22.5893Z" fill="white"/>
</g>
<defs>
<clipPath id="clip0_274_1577">
<rect width="24" height="24" fill="white"/>
</clipPath>
</defs>
</svg>
