<svg width="24" height="24" viewBox="0 0 24 24" fill="none" xmlns="http://www.w3.org/2000/svg">
<path d="M4.87507 3.00007C4.67617 3.00009 4.48541 3.07912 4.34477 3.21977C4.20412 3.36041 4.12509 3.55117 4.12507 3.75007V7.50008C4.12367 7.59946 4.14203 7.69813 4.17909 7.79036C4.21615 7.88258 4.27117 7.96652 4.34096 8.0373C4.41074 8.10807 4.49389 8.16428 4.58559 8.20264C4.67728 8.241 4.77568 8.26075 4.87507 8.26075C4.97447 8.26075 5.07287 8.241 5.16456 8.20264C5.25626 8.16428 5.33941 8.10807 5.40919 8.0373C5.47898 7.96652 5.534 7.88258 5.57106 7.79036C5.60812 7.69813 5.62648 7.59946 5.62507 7.50008V4.50007H8.62508C8.72446 4.50148 8.82313 4.48312 8.91536 4.44606C9.00758 4.409 9.09152 4.35398 9.1623 4.28419C9.23307 4.21441 9.28928 4.13126 9.32764 4.03956C9.366 3.94787 9.38575 3.84947 9.38575 3.75007C9.38575 3.65068 9.366 3.55228 9.32764 3.46059C9.28928 3.36889 9.23307 3.28574 9.1623 3.21596C9.09152 3.14617 9.00758 3.09115 8.91536 3.05409C8.82313 3.01703 8.72446 2.99867 8.62508 3.00007H4.87507Z" fill="white"/>
<path d="M21.3632 15.7398C21.1646 15.7429 20.9753 15.8247 20.8368 15.9673C20.6984 16.1098 20.6222 16.3014 20.6249 16.5001V19.5001H17.6249C17.5256 19.4987 17.4269 19.517 17.3347 19.5541C17.2424 19.5912 17.1585 19.6462 17.0877 19.716C17.0169 19.7858 16.9607 19.8689 16.9224 19.9606C16.884 20.0523 16.8643 20.1507 16.8643 20.2501C16.8643 20.3495 16.884 20.4479 16.9224 20.5396C16.9607 20.6313 17.0169 20.7144 17.0877 20.7842C17.1585 20.854 17.2424 20.909 17.3347 20.9461C17.4269 20.9831 17.5256 21.0015 17.6249 21.0001H21.3749C21.5738 21.0001 21.7646 20.921 21.9052 20.7804C22.0459 20.6397 22.1249 20.449 22.1249 20.2501V16.5001C22.1263 16.3997 22.1075 16.3002 22.0697 16.2072C22.0319 16.1142 21.9758 16.0298 21.9048 15.9589C21.8338 15.888 21.7493 15.8321 21.6562 15.7945C21.5632 15.7569 21.4636 15.7383 21.3632 15.7398Z" fill="white"/>
<path d="M21.3634 9.73984C21.1647 9.74294 20.9754 9.82473 20.837 9.96726C20.6986 10.1098 20.6224 10.3014 20.6251 10.5001V13.5001C20.6237 13.5995 20.642 13.6981 20.6791 13.7904C20.7162 13.8826 20.7712 13.9665 20.841 14.0373C20.9107 14.1081 20.9939 14.1643 21.0856 14.2027C21.1773 14.241 21.2757 14.2608 21.3751 14.2608C21.4745 14.2608 21.5729 14.241 21.6646 14.2027C21.7563 14.1643 21.8394 14.1081 21.9092 14.0373C21.979 13.9665 22.034 13.8826 22.0711 13.7904C22.1081 13.6981 22.1265 13.5995 22.1251 13.5001V10.5001C22.1264 10.3997 22.1077 10.3002 22.0699 10.2072C22.0321 10.1142 21.976 10.0298 21.9049 9.95893C21.8339 9.88804 21.7494 9.83213 21.6564 9.79449C21.5633 9.75686 21.4637 9.73827 21.3634 9.73984Z" fill="white"/>
<path d="M17.6249 3.00007C17.5256 2.99867 17.4269 3.01703 17.3347 3.05409C17.2424 3.09115 17.1585 3.14617 17.0877 3.21596C17.0169 3.28574 16.9607 3.36889 16.9224 3.46059C16.884 3.55228 16.8643 3.65068 16.8643 3.75007C16.8643 3.84947 16.884 3.94787 16.9224 4.03956C16.9607 4.13126 17.0169 4.21441 17.0877 4.28419C17.1585 4.35398 17.2424 4.409 17.3347 4.44606C17.4269 4.48312 17.5256 4.50148 17.6249 4.50007H20.6249V7.50008C20.6235 7.59946 20.6419 7.69813 20.679 7.79036C20.716 7.88258 20.771 7.96652 20.8408 8.0373C20.9106 8.10807 20.9938 8.16428 21.0854 8.20264C21.1771 8.241 21.2755 8.26075 21.3749 8.26075C21.4743 8.26075 21.5727 8.241 21.6644 8.20264C21.7561 8.16428 21.8393 8.10807 21.9091 8.0373C21.9788 7.96652 22.0339 7.88258 22.0709 7.79036C22.108 7.69813 22.1263 7.59946 22.1249 7.50008V3.75007C22.1249 3.55117 22.0459 3.36041 21.9052 3.21977C21.7646 3.07912 21.5738 3.00009 21.3749 3.00007H17.6249Z" fill="white"/>
<path d="M11.6249 3.00007C11.5256 2.99867 11.4269 3.01703 11.3347 3.05409C11.2424 3.09115 11.1585 3.14617 11.0877 3.21596C11.0169 3.28574 10.9607 3.36889 10.9224 3.46059C10.884 3.55228 10.8643 3.65068 10.8643 3.75007C10.8643 3.84947 10.884 3.94787 10.9224 4.03956C10.9607 4.13126 11.0169 4.21441 11.0877 4.28419C11.1585 4.35398 11.2424 4.409 11.3347 4.44606C11.4269 4.48312 11.5256 4.50148 11.6249 4.50007H14.6249C14.7243 4.50148 14.823 4.48312 14.9152 4.44606C15.0074 4.409 15.0914 4.35398 15.1622 4.28419C15.2329 4.21441 15.2891 4.13126 15.3275 4.03956C15.3659 3.94787 15.3856 3.84947 15.3856 3.75007C15.3856 3.65068 15.3659 3.55228 15.3275 3.46059C15.2891 3.36889 15.2329 3.28574 15.1622 3.21596C15.0914 3.14617 15.0074 3.09115 14.9152 3.05409C14.823 3.01703 14.7243 2.99867 14.6249 3.00007H11.6249Z" fill="white"/>
<path d="M6.375 9.75C5.14147 9.75 4.125 10.7665 4.125 12C2.89147 12 1.875 13.0165 1.875 14.25V18.75C1.875 19.9835 2.89147 21 4.125 21H13.125C14.3585 21 15.375 19.9835 15.375 18.75V14.25C15.375 13.0165 14.3585 12 13.125 12C13.125 10.7665 12.1085 9.75001 10.875 9.75H6.375ZM8.625 13.5C9.85875 13.5 10.875 14.5163 10.875 15.75C10.875 16.9838 9.85875 18 8.625 18C7.39125 18 6.375 16.9838 6.375 15.75C6.375 14.5163 7.39125 13.5 8.625 13.5Z" fill="white"/>
</svg>
