<svg width="24" height="24" viewBox="0 0 24 24" fill="none" xmlns="http://www.w3.org/2000/svg">
<path d="M4.27514 17.2351L4.29987 17.2104L4.28513 17.1787C3.97678 16.5152 3.80004 15.7783 3.80004 15C3.80004 12.1326 6.13265 9.8 9.00004 9.8C11.8674 9.8 14.2 12.1326 14.2 15C14.2 17.8674 11.8674 20.2 9.00004 20.2C8.2217 20.2 7.48487 20.0233 6.82136 19.7149L6.78966 19.7002L6.76493 19.7249L4.55543 21.9344C4.21197 22.2779 3.76137 22.4493 3.31054 22.4493C2.85971 22.4493 2.40911 22.2779 2.06564 21.9344C1.37942 21.2482 1.37942 20.1308 2.06564 19.4446L4.27514 17.2351ZM3.56553 20.9447L3.56564 20.9446L5.55464 18.9556L5.59214 18.9181L5.55251 18.8829C5.39872 18.7462 5.25386 18.6013 5.11716 18.4475L5.08193 18.4079L5.04443 18.4454L3.05543 20.4344C2.91441 20.5754 2.91441 20.8036 3.05543 20.9446L3.05554 20.9447C3.19654 21.0848 3.42453 21.0848 3.56553 20.9447ZM12.8 15C12.8 12.9046 11.0954 11.2 9.00004 11.2C6.90468 11.2 5.20004 12.9046 5.20004 15C5.20004 17.0954 6.90468 18.8 9.00004 18.8C11.0954 18.8 12.8 17.0954 12.8 15Z" fill="white" stroke="white" stroke-width="0.1"/>
<path d="M14.3 4.5C14.3 4.11361 14.6136 3.8 15 3.8C15.3864 3.8 15.7 4.11361 15.7 4.5V6C15.7 6.38639 15.3864 6.7 15 6.7C14.6136 6.7 14.3 6.38639 14.3 6V4.5Z" fill="white" stroke="white" stroke-width="0.1"/>
<path d="M16.55 4.5C16.55 4.11361 16.8636 3.8 17.25 3.8C17.6364 3.8 17.95 4.11361 17.95 4.5V6C17.95 6.38639 17.6364 6.7 17.25 6.7C16.8636 6.7 16.55 6.38639 16.55 6V4.5Z" fill="white" stroke="white" stroke-width="0.1"/>
<path d="M18.8 4.5C18.8 4.11361 19.1136 3.8 19.5 3.8C19.8864 3.8 20.2 4.11361 20.2 4.5V6C20.2 6.38639 19.8864 6.7 19.5 6.7C19.1136 6.7 18.8 6.38639 18.8 6V4.5Z" fill="white" stroke="white" stroke-width="0.1"/>
<path d="M15.7 12C15.7 12.3864 15.3864 12.7 15 12.7C14.6136 12.7 14.3 12.3864 14.3 12V10.5C14.3 10.1136 14.6136 9.8 15 9.8C15.3864 9.8 15.7 10.1136 15.7 10.5V12Z" fill="white" stroke="white" stroke-width="0.1"/>
<path d="M17.95 10.5V12C17.95 12.3864 17.6364 12.7 17.25 12.7C16.8636 12.7 16.55 12.3864 16.55 12V10.5C16.55 10.1136 16.8636 9.8 17.25 9.8C17.6364 9.8 17.95 10.1136 17.95 10.5Z" fill="white" stroke="white" stroke-width="0.1"/>
<path d="M20.2 10.5V12C20.2 12.3864 19.8864 12.7 19.5 12.7C19.1136 12.7 18.8 12.3864 18.8 12V10.5C18.8 10.1136 19.1136 9.8 19.5 9.8C19.8864 9.8 20.2 10.1136 20.2 10.5Z" fill="white" stroke="white" stroke-width="0.1"/>
<path d="M15 18.7C14.6136 18.7 14.3 18.3864 14.3 18V16.5C14.3 16.1136 14.6136 15.8 15 15.8C15.3864 15.8 15.7 16.1136 15.7 16.5V18C15.7 18.3864 15.3864 18.7 15 18.7Z" fill="white" stroke="white" stroke-width="0.1"/>
<path d="M17.95 16.5V18C17.95 18.3864 17.6364 18.7 17.25 18.7C16.8636 18.7 16.55 18.3864 16.55 18V16.5C16.55 16.1136 16.8636 15.8 17.25 15.8C17.6364 15.8 17.95 16.1136 17.95 16.5Z" fill="white" stroke="white" stroke-width="0.1"/>
<path d="M20.2 16.5V18C20.2 18.3864 19.8864 18.7 19.5 18.7C19.1136 18.7 18.8 18.3864 18.8 18V16.5C18.8 16.1136 19.1136 15.8 19.5 15.8C19.8864 15.8 20.2 16.1136 20.2 16.5Z" fill="white" stroke="white" stroke-width="0.1"/>
<path d="M21.05 9V8.95H21H8.25C7.86361 8.95 7.55 8.63639 7.55 8.25V3.75C7.55 2.53711 8.53711 1.55 9.75 1.55H20.25C21.4629 1.55 22.45 2.53711 22.45 3.75V18.75C22.45 19.9629 21.4629 20.95 20.25 20.95H12.75C12.3636 20.95 12.05 20.6364 12.05 20.25C12.05 19.8636 12.3636 19.55 12.75 19.55H20.25C20.6909 19.55 21.05 19.1909 21.05 18.75V15V14.95H21H15.75C15.3636 14.95 15.05 14.6364 15.05 14.25C15.05 13.8636 15.3636 13.55 15.75 13.55H21H21.05V13.5V9ZM8.95 7.5V7.55H9H21H21.05V7.5V3.75C21.05 3.30914 20.6909 2.95 20.25 2.95H9.75C9.30914 2.95 8.95 3.30914 8.95 3.75V7.5Z" fill="white" stroke="white" stroke-width="0.1"/>
</svg>
