<svg width="24" height="24" viewBox="0 0 24 24" fill="none" xmlns="http://www.w3.org/2000/svg">
<g clip-path="url(#clip0_274_1580)">
<path d="M12.0001 9.06323C10.3809 9.06323 9.06348 10.3806 9.06348 11.9999C9.06348 13.6191 10.3809 14.9365 12.0001 14.9365C13.6194 14.9365 14.9368 13.6191 14.9368 11.9999C14.9368 10.3806 13.6194 9.06323 12.0001 9.06323ZM12.0001 13.2463C11.3129 13.2463 10.7537 12.6872 10.7537 11.9999C10.7537 11.3126 11.3129 10.7533 12.0001 10.7533C12.6874 10.7533 13.2466 11.3126 13.2466 11.9999C13.2466 12.6872 12.6874 13.2463 12.0001 13.2463Z" fill="white"/>
<path d="M12.0001 4.88032C11.629 4.88032 11.2645 4.909 10.9085 4.96395C10.4976 4.48646 9.88942 4.18311 9.21136 4.18311C7.97653 4.18311 6.97193 5.18771 6.97193 6.42254C6.97193 6.59102 6.99124 6.75474 7.02663 6.91272C5.70364 8.20581 4.88037 10.0081 4.88037 12C4.88037 15.9258 8.07415 19.1197 12 19.1197C15.9259 19.1197 19.1197 15.9258 19.1197 12C19.1197 8.07418 15.926 4.88032 12.0001 4.88032ZM9.21136 5.87329C9.51423 5.87329 9.76069 6.11967 9.76069 6.42254C9.76069 6.72541 9.51423 6.97187 9.21136 6.97187C8.90849 6.97187 8.66211 6.72541 8.66211 6.42254C8.66211 6.11959 8.90849 5.87329 9.21136 5.87329ZM12.0001 17.4296C9.00619 17.4296 6.57055 14.9938 6.57055 12C6.57055 10.5788 7.12021 9.28428 8.01734 8.31563C8.36328 8.53462 8.77265 8.66189 9.21136 8.66189C10.3866 8.66189 11.3527 7.75167 11.4432 6.59927C11.6263 6.58036 11.812 6.57042 12.0001 6.57042C14.9941 6.57042 17.4297 9.00614 17.4297 12C17.4297 14.9939 14.9941 17.4296 12.0001 17.4296Z" fill="white"/>
<path d="M24 6.42254C24 5.18772 22.9954 4.18311 21.7606 4.18311C21.5543 4.18311 21.3548 4.21172 21.1652 4.26416C18.9622 1.65826 15.6715 0 12 0C5.38319 0 0 5.38319 0 12C0 15.6714 1.65826 18.9622 4.26408 21.1651C4.21164 21.3549 4.18311 21.5544 4.18311 21.7606C4.18311 22.9954 5.1878 24 6.42254 24C7.05042 24 7.61834 23.74 8.02529 23.3223C9.2699 23.7606 10.6075 24 12 24C18.6168 24 24 18.6168 24 12C24 10.6074 23.7607 9.2699 23.3223 8.02529C23.74 7.61834 24 7.05034 24 6.42254ZM22.3099 6.42254C22.3099 6.72541 22.0634 6.97188 21.7606 6.97188C21.4577 6.97188 21.2112 6.72541 21.2112 6.42254C21.2112 6.11968 21.4577 5.87329 21.7606 5.87329C22.0634 5.87329 22.3099 6.1196 22.3099 6.42254ZM6.42254 22.3098C6.11968 22.3098 5.87329 22.0634 5.87329 21.7606C5.87329 21.4577 6.11968 21.2112 6.42254 21.2112C6.72541 21.2112 6.97188 21.4577 6.97188 21.7606C6.9718 22.0634 6.72541 22.3098 6.42254 22.3098ZM12 22.3098C10.8321 22.3098 9.70933 22.1139 8.66174 21.7543C8.65834 20.5223 7.65527 19.5211 6.42246 19.5211C6.0122 19.5211 5.62756 19.6326 5.29648 19.8259C3.09042 17.9337 1.69002 15.1275 1.69002 11.9999C1.69002 6.31499 6.31499 1.6901 11.9999 1.6901C15.1275 1.6901 17.9337 3.09034 19.8259 5.29648C19.6324 5.62764 19.5211 6.01212 19.5211 6.42246C19.5211 7.65527 20.5224 8.65842 21.7543 8.66174C22.1139 9.70925 22.3099 10.832 22.3099 12C22.3099 17.6849 17.6849 22.3098 12 22.3098Z" fill="white"/>
</g>
<defs>
<clipPath id="clip0_274_1580">
<rect width="24" height="24" fill="white"/>
</clipPath>
</defs>
</svg>
