<svg width="24" height="24" viewBox="0 0 24 24" fill="none" xmlns="http://www.w3.org/2000/svg">
<path d="M21 11.25H18.6998C18.5812 10.2004 18.2188 9.1931 17.6417 8.30845C17.0645 7.4238 16.2886 6.68632 15.3757 6.15488C15.2904 6.10224 15.1954 6.06724 15.0964 6.05195C14.9973 6.03665 14.8961 6.04138 14.7989 6.06584C14.7017 6.0903 14.6104 6.13401 14.5303 6.19437C14.4503 6.25473 14.3832 6.33052 14.3329 6.41727C14.2827 6.50402 14.2504 6.59996 14.2378 6.69942C14.2253 6.79888 14.2328 6.89985 14.26 6.99635C14.2871 7.09284 14.3334 7.18292 14.3959 7.26125C14.4585 7.33957 14.5361 7.40456 14.6243 7.45237C15.3103 7.85155 15.8974 8.40032 16.342 9.05783C16.7866 9.71534 17.0771 10.4647 17.192 11.25H16.5C16.3011 11.25 16.1103 11.329 15.9697 11.4697C15.829 11.6103 15.75 11.8011 15.75 12C15.75 12.1989 15.829 12.3897 15.9697 12.5303C16.1103 12.671 16.3011 12.75 16.5 12.75H17.19C17.0267 13.8695 16.5063 14.9064 15.7063 15.7063C14.9064 16.5063 13.8695 17.0267 12.75 17.19V16.5C12.75 16.3011 12.671 16.1103 12.5303 15.9697C12.3897 15.829 12.1989 15.75 12 15.75C11.8011 15.75 11.6103 15.829 11.4697 15.9697C11.329 16.1103 11.25 16.3011 11.25 16.5V17.19C10.1305 17.0267 9.09364 16.5063 8.29365 15.7063C7.49367 14.9064 6.97332 13.8695 6.81 12.75H7.5C7.69891 12.75 7.88968 12.671 8.03033 12.5303C8.17098 12.3897 8.25 12.1989 8.25 12C8.25 11.8011 8.17098 11.6103 8.03033 11.4697C7.88968 11.329 7.69891 11.25 7.5 11.25H6.81C6.97332 10.1305 7.49367 9.09364 8.29365 8.29365C9.09364 7.49367 10.1305 6.97332 11.25 6.81V7.5C11.25 7.69891 11.329 7.88968 11.4697 8.03033C11.6103 8.17098 11.8011 8.25 12 8.25C12.1989 8.25 12.3897 8.17098 12.5303 8.03033C12.671 7.88968 12.75 7.69891 12.75 7.5V3C12.75 2.80109 12.671 2.61032 12.5303 2.46967C12.3897 2.32902 12.1989 2.25 12 2.25C11.8011 2.25 11.6103 2.32902 11.4697 2.46967C11.329 2.61032 11.25 2.80109 11.25 3V5.29425C9.72977 5.46641 8.31291 6.14923 7.23107 7.23107C6.14923 8.31291 5.46641 9.72977 5.29425 11.25H3C2.80109 11.25 2.61032 11.329 2.46967 11.4697C2.32902 11.6103 2.25 11.8011 2.25 12C2.25 12.1989 2.32902 12.3897 2.46967 12.5303C2.61032 12.671 2.80109 12.75 3 12.75H5.29425C5.46641 14.2702 6.14923 15.6871 7.23107 16.7689C8.31291 17.8508 9.72977 18.5336 11.25 18.7057V21C11.25 21.1989 11.329 21.3897 11.4697 21.5303C11.6103 21.671 11.8011 21.75 12 21.75C12.1989 21.75 12.3897 21.671 12.5303 21.5303C12.671 21.3897 12.75 21.1989 12.75 21V18.7057C14.2702 18.5336 15.6871 17.8508 16.7689 16.7689C17.8508 15.6871 18.5336 14.2702 18.7057 12.75H21C21.1989 12.75 21.3897 12.671 21.5303 12.5303C21.671 12.3897 21.75 12.1989 21.75 12C21.75 11.8011 21.671 11.6103 21.5303 11.4697C21.3897 11.329 21.1989 11.25 21 11.25Z" fill="white"/>
</svg>
