<svg width="24" height="24" viewBox="0 0 24 24" fill="none" xmlns="http://www.w3.org/2000/svg">
<g clip-path="url(#clip0_274_1583)">
<path d="M23.2963 23.166C23.6958 23.166 24.0176 22.8327 23.9986 22.429C23.9807 22.0508 23.655 21.7599 23.2764 21.7599H20.6714V20.3537H23.2963C23.788 20.3537 24.1278 19.861 23.9539 19.4012L20.7023 10.8259C20.474 10.2246 19.6197 10.2207 19.3885 10.8231C17.7644 15.0458 17.0481 16.9067 16.7341 17.7246L17.7203 20.3537H19.2652V21.7599H12.703V20.3537H16.2185L12.6654 10.8786C12.4285 10.247 11.5723 10.2447 11.3346 10.8786L7.78147 20.3537H11.2969V21.7599H4.73475V20.3537H6.27967L7.26587 17.7246C6.95183 16.9067 6.23561 15.0458 4.61147 10.8231C4.38021 10.2205 3.5259 10.2247 3.29764 10.8259L0.0460818 19.4012C-0.127816 19.861 0.212011 20.3537 0.703705 20.3537H3.32857V21.7599H0.723532C0.344942 21.7599 0.0191769 22.0508 0.00136529 22.429C-0.017665 22.8327 0.304069 23.166 0.703658 23.166H23.2963Z" fill="white"/>
<path d="M13.0802 9.29735L14.6738 5.31224L12.6288 1.22167C12.3702 0.704524 11.6294 0.704337 11.3707 1.22167L9.32568 5.31224L10.9194 9.29735C11.588 8.89753 12.4113 8.89739 13.0802 9.29735Z" fill="white"/>
<path d="M15.9901 15.7404C15.9932 15.7324 18.0733 10.3251 18.0759 10.3181C18.2977 9.74114 18.7636 9.29866 19.3274 9.09336L17.5899 5.03982C17.3448 4.4653 16.5229 4.47514 16.291 5.05529L14.0679 10.6144L15.9901 15.7404Z" fill="white"/>
<path d="M8.00969 15.7405C8.0066 15.7324 5.92653 10.3252 5.92386 10.3182C5.70215 9.74123 5.23624 9.29875 4.67236 9.09345L6.40993 5.0399C6.52149 4.77835 6.78023 4.61008 7.06474 4.61383C7.34879 4.61711 7.60331 4.79148 7.70877 5.05537L9.93194 10.6145L8.00969 15.7405Z" fill="white"/>
</g>
<defs>
<clipPath id="clip0_274_1583">
<rect width="24" height="24" fill="white"/>
</clipPath>
</defs>
</svg>
