<svg width="24" height="24" viewBox="0 0 24 24" fill="none" xmlns="http://www.w3.org/2000/svg">
<g clip-path="url(#clip0_274_1584)">
<path d="M23.7941 4.6883L19.8163 0.710508C19.5571 0.45129 19.1423 0.434884 18.8634 0.672539L5.70983 11.8766L12.6281 18.7948L23.8321 5.64127C24.0698 5.36236 24.0534 4.94752 23.7941 4.6883ZM4.96874 13.1239V16.5289C4.9664 16.5312 4.41843 17.0844 3.69468 17.8147L6.69186 20.8118C7.39498 20.1129 7.97342 19.5382 7.97576 19.5359H11.3807L4.96874 13.1239ZM0.204383 21.3373C-0.165459 21.7095 -0.0112407 22.3423 0.488914 22.5026L3.48656 23.4621C3.7364 23.5423 4.01156 23.4762 4.19812 23.2896C4.19999 23.2878 4.89843 22.5935 5.69436 21.8028L2.70469 18.8131C1.47703 20.0525 0.206727 21.3345 0.204383 21.3373Z" fill="white"/>
</g>
<defs>
<clipPath id="clip0_274_1584">
<rect width="24" height="24" fill="white"/>
</clipPath>
</defs>
</svg>
