<svg width="24" height="24" viewBox="0 0 24 24" fill="none" xmlns="http://www.w3.org/2000/svg">
<path d="M16.8869 15.4728C17.6927 14.3411 18.121 12.9219 17.97 11.3947C17.6978 8.6434 15.509 6.3867 12.7652 6.04745C8.85195 5.56355 5.56365 8.8518 6.0474 12.765C6.3866 15.509 8.6433 17.6978 11.3947 17.97C12.922 18.121 14.3411 17.6927 15.4728 16.8869L20.3202 21.7071C20.5153 21.9023 20.7714 22 21.0273 22C21.2486 22 21.4702 21.9269 21.6523 21.7807C22.1275 21.3991 22.0991 20.6578 21.6681 20.2268L16.8869 15.4728H16.8869ZM12 16C9.79085 16 8 14.2092 8 12C8 9.79085 9.79085 8 12 8C14.2092 8 16 9.79085 16 12C16 14.2092 14.2092 16 12 16ZM21 2H3C2.4477 2 2 2.4477 2 3V18C2 18.5523 2.4477 19 3 19H11.5V18.9729C11.4319 18.9682 11.364 18.9718 11.2959 18.9651C10.639 18.9001 10.009 18.7377 9.4156 18.5H3C2.7243 18.5 2.5 18.2757 2.5 18V4.5H21.5V18C21.5 18.1769 21.4023 18.3253 21.2633 18.4142L21.6256 18.7743C21.8522 18.591 22 18.3142 22 18V3C22 2.4477 21.5523 2 21 2ZM3.5 3.25H3C2.8618 3.25 2.75 3.1382 2.75 3C2.75 2.8618 2.8618 2.75 3 2.75H3.5C3.6382 2.75 3.75 2.8618 3.75 3C3.75 3.1382 3.6382 3.25 3.5 3.25ZM5 3.25H4.5C4.3618 3.25 4.25 3.1382 4.25 3C4.25 2.8618 4.3618 2.75 4.5 2.75H5C5.1382 2.75 5.25 2.8618 5.25 3C5.25 3.1382 5.1382 3.25 5 3.25ZM6.5 3.25H6C5.8618 3.25 5.75 3.1382 5.75 3C5.75 2.8618 5.8618 2.75 6 2.75H6.5C6.6382 2.75 6.75 2.8618 6.75 3C6.75 3.1382 6.6382 3.25 6.5 3.25Z" fill="white"/>
</svg>
