<svg width="24" height="24" viewBox="0 0 24 24" fill="none" xmlns="http://www.w3.org/2000/svg">
<g clip-path="url(#clip0_274_1585)">
<path d="M19.8047 4.64062V3.51562C19.8047 1.57711 18.2276 0 16.2891 0H7.66406C5.72555 0 4.14844 1.57711 4.14844 3.51562V4.64062H19.8047Z" fill="white"/>
<path d="M5.55469 14.9531V20.6719V21.8906V22.5938C5.55469 23.3704 6.18427 24 6.96094 24H16.9922C17.7689 24 18.3984 23.3704 18.3984 22.5938V21.8906V20.6719V14.9531H5.55469ZM13.8516 20.9531H10.1016C9.71325 20.9531 9.39844 20.6383 9.39844 20.25C9.39844 19.8617 9.71325 19.5469 10.1016 19.5469H13.8516C14.2399 19.5469 14.5547 19.8617 14.5547 20.25C14.5547 20.6383 14.2399 20.9531 13.8516 20.9531ZM13.8516 17.9531H10.1016C9.71325 17.9531 9.39844 17.6383 9.39844 17.25C9.39844 16.8617 9.71325 16.5469 10.1016 16.5469H13.8516C14.2399 16.5469 14.5547 16.8617 14.5547 17.25C14.5547 17.6383 14.2399 17.9531 13.8516 17.9531Z" fill="white"/>
<path d="M20.4609 6.04688H3.53906C1.60055 6.04688 0.0234375 7.62398 0.0234375 9.5625V15.1875C0.0234375 17.126 1.60055 18.7031 3.53906 18.7031H4.14844V14.9531H3.72656C3.33825 14.9531 3.02344 14.6383 3.02344 14.25C3.02344 13.8617 3.33825 13.5469 3.72656 13.5469H4.85156H19.1016H20.2266C20.6149 13.5469 20.9297 13.8617 20.9297 14.25C20.9297 14.6383 20.6149 14.9531 20.2266 14.9531H19.8047V18.7031H20.4609C22.3995 18.7031 23.9766 17.126 23.9766 15.1875V9.5625C23.9766 7.62398 22.3995 6.04688 20.4609 6.04688ZM5.97656 10.4531H3.72656C3.33825 10.4531 3.02344 10.1383 3.02344 9.75C3.02344 9.36169 3.33825 9.04688 3.72656 9.04688H5.97656C6.36487 9.04688 6.67969 9.36169 6.67969 9.75C6.67969 10.1383 6.36487 10.4531 5.97656 10.4531Z" fill="white"/>
</g>
<defs>
<clipPath id="clip0_274_1585">
<rect width="24" height="24" fill="white"/>
</clipPath>
</defs>
</svg>
