<svg width="40" height="40" viewBox="0 0 40 40" fill="none" xmlns="http://www.w3.org/2000/svg">
<g clip-path="url(#clip0_341_1750)">
<path d="M10.1595 18.0161C8.82718 18.1663 7.86556 19.3734 8.01538 20.7057C8.15437 21.9373 9.19249 22.8661 10.43 22.8661C10.5207 22.8661 10.6126 22.8607 10.7046 22.8507C11.3503 22.7779 11.9287 22.4583 12.334 21.9499C12.7393 21.4418 12.9223 20.8065 12.8495 20.1606C12.7001 18.8395 11.5268 17.8601 10.1595 18.0161ZM11.1323 20.992C10.9829 21.1792 10.7699 21.2974 10.5319 21.324C10.0351 21.3756 9.59651 21.0211 9.54158 20.5335C9.48621 20.0425 9.84074 19.5981 10.3309 19.5427C10.365 19.5386 10.3988 19.5369 10.4325 19.5369C10.8889 19.5369 11.2717 19.8789 11.3225 20.3329C11.3491 20.5705 11.2817 20.8047 11.1323 20.992Z" fill="#191919"/>
<path d="M25.8138 19.7005L14.19 19.6716C13.7802 19.6709 13.4523 19.9856 13.4572 20.3749C13.4617 20.7291 13.7409 21.0233 14.0998 21.0739C14.1353 21.0789 14.1711 21.0812 14.208 21.0818L25.8318 21.1106C26.2416 21.1113 26.5699 20.7967 26.565 20.4074C26.5596 20.0184 26.2222 19.7052 25.8138 19.7005Z" fill="#191919"/>
<path d="M32.0057 20.1595C31.8564 18.8384 30.6613 17.8652 29.3166 18.015C28.6712 18.0878 28.0928 18.4073 27.6876 18.9158C27.2823 19.4238 27.0988 20.0588 27.172 20.7042C27.3106 21.9358 28.3491 22.8641 29.5875 22.8641C29.6782 22.8641 29.7697 22.8591 29.8613 22.8491C30.5066 22.7763 31.085 22.4567 31.4903 21.9486C31.8955 21.4402 32.0786 20.8053 32.0057 20.1595ZM30.2898 20.9904C30.1404 21.1777 29.9274 21.2958 29.6902 21.3221C29.1926 21.3828 28.754 21.0196 28.6991 20.5319C28.672 20.2948 28.7398 20.0609 28.8888 19.8737C29.0382 19.6865 29.2516 19.5683 29.4892 19.5417C29.5238 19.5379 29.5579 19.5359 29.5916 19.5359C30.0468 19.5359 30.4284 19.8779 30.4796 20.3319C30.5066 20.5694 30.4388 20.8036 30.2898 20.9904Z" fill="#191919"/>
</g>
<rect x="0.5" y="0.5" width="39" height="39" rx="3.5" stroke="#BDBDBD"/>
<defs>
<clipPath id="clip0_341_1750">
<rect width="24" height="24" fill="white" transform="translate(8 8)"/>
</clipPath>
</defs>
</svg>
