<svg width="40" height="40" viewBox="0 0 40 40" fill="none" xmlns="http://www.w3.org/2000/svg">
<g clip-path="url(#clip0_341_1764)">
<path d="M10.4308 16.4048C10.521 16.4048 10.6126 16.4002 10.7046 16.3898C11.3503 16.317 11.9287 15.9975 12.334 15.489C12.7393 14.981 12.9223 14.3456 12.8495 13.6998C12.7001 12.3791 11.5184 11.4063 10.1599 11.5557C8.8276 11.7059 7.86556 12.9126 8.01537 14.2453C8.15474 15.4765 9.1929 16.4048 10.4308 16.4048ZM10.3318 13.0827C10.3659 13.0785 10.4 13.0769 10.4337 13.0769C10.8894 13.0769 11.2717 13.4189 11.3233 13.8721C11.35 14.1096 11.2826 14.3439 11.1332 14.5311C10.9838 14.7184 10.7708 14.8365 10.5331 14.8627C10.0342 14.9227 9.59735 14.5603 9.54241 14.0734C9.4871 13.582 9.8412 13.1381 10.3318 13.0827Z" fill="#191919"/>
<path d="M24.188 13.699C24.2783 13.699 24.3699 13.6944 24.4618 13.6836C25.7946 13.533 26.7562 12.3263 26.6059 10.9948C26.4574 9.67335 25.2728 8.69636 23.9163 8.84988C22.584 9.00007 21.6224 10.2072 21.7722 11.5395C21.9108 12.7707 22.9493 13.699 24.188 13.699ZM24.089 10.3765C24.1231 10.3723 24.1572 10.3703 24.1909 10.3703C24.647 10.3703 25.0289 10.7127 25.0793 11.1666C25.135 11.6572 24.7805 12.1016 24.2899 12.1569C23.7956 12.2185 23.3537 11.8549 23.2992 11.3672C23.2439 10.8762 23.598 10.4319 24.089 10.3765Z" fill="#191919"/>
<path d="M31.9843 25.6933C31.8349 24.3722 30.6399 23.399 29.2951 23.5488C28.6497 23.6216 28.0713 23.9411 27.6661 24.4496C27.2608 24.9577 27.0773 25.5926 27.1505 26.238C27.2891 27.4696 28.3276 28.3979 29.566 28.3979C29.6567 28.3979 29.7482 28.3929 29.8398 28.3829C30.4851 28.3101 31.0635 27.9905 31.4688 27.4825C31.874 26.974 32.0571 26.3391 31.9843 25.6933ZM30.2683 26.5243C30.1189 26.7115 29.9059 26.8297 29.6687 26.8559C29.1711 26.9167 28.7325 26.5534 28.6776 26.0658C28.6505 25.8286 28.7184 25.5947 28.8673 25.4075C29.0167 25.2203 29.2301 25.1021 29.4678 25.0755C29.5023 25.0717 29.5364 25.0697 29.5701 25.0697C30.0254 25.0697 30.4069 25.4117 30.4581 25.8657C30.4851 26.1032 30.4173 26.3374 30.2683 26.5243Z" fill="#191919"/>
<path d="M10.3187 26.3162C8.98636 26.4663 8.02474 27.6735 8.17456 29.0058C8.31355 30.2374 9.35167 31.1661 10.5892 31.1661C10.6799 31.1661 10.7718 31.1607 10.8638 31.1507C11.5095 31.0779 12.0879 30.7584 12.4932 30.2499C12.8985 29.7419 13.0815 29.1065 13.0087 28.4607C12.8593 27.1396 11.686 26.1601 10.3187 26.3162ZM11.2915 29.292C11.1421 29.4793 10.9291 29.5974 10.6911 29.6241C10.1943 29.6757 9.75569 29.3212 9.70076 28.8335C9.64539 28.3425 9.99992 27.8981 10.4901 27.8428C10.5242 27.8386 10.5579 27.837 10.5916 27.837C11.0481 27.837 11.4309 28.179 11.4817 28.633C11.5083 28.8705 11.4408 29.1048 11.2915 29.292Z" fill="#191919"/>
<path d="M13.8947 14.0602C13.9442 14.0602 13.9938 14.0552 14.0437 14.0456L20.8743 12.702C21.2903 12.6201 21.5612 12.216 21.4797 11.8C21.3977 11.3839 20.9949 11.1138 20.5776 11.1946L13.747 12.5381C13.3309 12.6201 13.0596 13.0241 13.1416 13.4402C13.214 13.8064 13.5352 14.0602 13.8947 14.0602Z" fill="#191919"/>
<path d="M25.1843 13.9853C24.786 14.1309 24.5809 14.572 24.7266 14.9706L27.5884 22.7894C27.702 23.1007 27.9962 23.2937 28.3095 23.2937C28.3973 23.2937 28.486 23.2787 28.5734 23.2467C28.972 23.101 29.1771 22.66 29.0311 22.2614L26.1696 14.4426C26.0244 14.0444 25.5816 13.8393 25.1843 13.9853Z" fill="#191919"/>
<path d="M25.9236 25.7203L14.0147 27.4575C13.5948 27.5191 13.3044 27.909 13.3656 28.3288C13.4213 28.7108 13.7496 28.9863 14.1245 28.9863C14.1616 28.9863 14.1986 28.9833 14.2365 28.9783L26.1455 27.2411C26.5653 27.1796 26.8561 26.7897 26.795 26.3699C26.7333 25.9504 26.3426 25.6633 25.9236 25.7203Z" fill="#191919"/>
<path d="M10.4721 16.8693C10.4692 16.8693 10.4663 16.8693 10.4634 16.8693C10.0394 16.8739 9.69907 17.2209 9.70366 17.6453L9.78396 25.0767C9.78897 25.4982 10.1318 25.8365 10.5521 25.8365C10.555 25.8365 10.5579 25.8365 10.5608 25.8365C10.9848 25.8319 11.3252 25.4849 11.3206 25.0605L11.2403 17.629C11.2353 17.2075 10.8924 16.8693 10.4721 16.8693Z" fill="#191919"/>
</g>
<rect x="0.5" y="0.5" width="39" height="39" rx="3.5" stroke="#BDBDBD"/>
<defs>
<clipPath id="clip0_341_1764">
<rect width="24" height="24" fill="white" transform="translate(8 8)"/>
</clipPath>
</defs>
</svg>
