<svg width="40" height="40" viewBox="0 0 40 40" fill="none" xmlns="http://www.w3.org/2000/svg">
<path d="M20.1595 18.0161C18.8272 18.1663 17.8656 19.3734 18.0154 20.7057C18.1544 21.9373 19.1925 22.8661 20.43 22.8661C20.5207 22.8661 20.6126 22.8607 20.7046 22.8507C21.3503 22.7779 21.9287 22.4583 22.334 21.9499C22.7393 21.4418 22.9223 20.8065 22.8495 20.1606C22.7001 18.8395 21.5268 17.8601 20.1595 18.0161ZM21.1323 20.992C20.9829 21.1792 20.7699 21.2974 20.5319 21.324C20.0351 21.3756 19.5965 21.0211 19.5416 20.5335C19.4862 20.0425 19.8407 19.5981 20.3309 19.5427C20.365 19.5386 20.3988 19.5369 20.4325 19.5369C20.8889 19.5369 21.2717 19.8789 21.3225 20.3329C21.3491 20.5705 21.2817 20.8047 21.1323 20.992Z" fill="#191919"/>
<rect x="0.5" y="0.5" width="39" height="39" rx="3.5" stroke="#BDBDBD"/>
</svg>
