<svg width="40" height="40" viewBox="0 0 40 40" fill="none" xmlns="http://www.w3.org/2000/svg">
<g clip-path="url(#clip0_403_1872)">
<path d="M10.1595 18.0161C8.82718 18.1663 7.86556 19.3734 8.01538 20.7057C8.15437 21.9373 9.19249 22.8661 10.43 22.8661C10.5207 22.8661 10.6126 22.8607 10.7046 22.8507C11.3503 22.7779 11.9287 22.4583 12.334 21.9499C12.7393 21.4418 12.9223 20.8065 12.8495 20.1606C12.7001 18.8395 11.5268 17.8601 10.1595 18.0161ZM11.1323 20.992C10.9829 21.1792 10.7699 21.2974 10.5319 21.324C10.0351 21.3756 9.59651 21.0211 9.54158 20.5335C9.48621 20.0425 9.84074 19.5981 10.3309 19.5427C10.365 19.5386 10.3988 19.5369 10.4325 19.5369C10.8889 19.5369 11.2717 19.8789 11.3225 20.3329C11.3491 20.5705 11.2817 20.8047 11.1323 20.992Z" fill="#191919"/>
<path d="M25.8135 19.7005L14.1897 19.6716C13.7799 19.6709 13.452 19.9856 13.4569 20.3749C13.4615 20.7291 13.7406 21.0233 14.0996 21.0739C14.135 21.0789 14.1708 21.0812 14.2077 21.0818L25.8315 21.1106C26.2413 21.1113 26.5696 20.7967 26.5647 20.4074C26.5593 20.0184 26.2219 19.7052 25.8135 19.7005Z" fill="#191919"/>
<path d="M32.006 20.1595C31.8566 18.8384 30.6616 17.8652 29.3168 18.015C28.6715 18.0878 28.093 18.4073 27.6878 18.9158C27.2825 19.4238 27.099 20.0588 27.1723 20.7042C27.3108 21.9358 28.3494 22.8641 29.5877 22.8641C29.6784 22.8641 29.77 22.8591 29.8615 22.8491C30.5068 22.7763 31.0853 22.4567 31.4905 21.9486C31.8957 21.4402 32.0788 20.8053 32.006 20.1595ZM30.29 20.9904C30.1406 21.1777 29.9276 21.2958 29.6905 21.3221C29.1928 21.3828 28.7542 21.0196 28.6993 20.5319C28.6723 20.2948 28.7401 20.0609 28.8891 19.8737C29.0384 19.6865 29.2519 19.5683 29.4895 19.5417C29.524 19.5379 29.5582 19.5359 29.5919 19.5359C30.0471 19.5359 30.4287 19.8779 30.4798 20.3319C30.5068 20.5694 30.439 20.8036 30.29 20.9904Z" fill="#191919"/>
</g>
<rect x="0.5" y="0.5" width="39" height="39" rx="3.5" stroke="#BDBDBD"/>
<defs>
<clipPath id="clip0_403_1872">
<rect width="24" height="24" fill="white" transform="translate(8 8)"/>
</clipPath>
</defs>
</svg>
