<svg width="40" height="40" viewBox="0 0 40 40" fill="none" xmlns="http://www.w3.org/2000/svg">
<g clip-path="url(#clip0_403_1873)">
<path d="M10.1595 18.0161C8.82718 18.1663 7.86556 19.3734 8.01538 20.7057C8.15437 21.9373 9.19249 22.8661 10.43 22.8661C10.5207 22.8661 10.6126 22.8607 10.7046 22.8507C11.3503 22.7779 11.9287 22.4583 12.334 21.9499C12.7393 21.4418 12.9223 20.8065 12.8495 20.1606C12.7001 18.8395 11.5268 17.8601 10.1595 18.0161ZM11.1323 20.992C10.9829 21.1792 10.7699 21.2974 10.5319 21.324C10.0351 21.3756 9.59651 21.0211 9.54158 20.5335C9.48621 20.0425 9.84074 19.5981 10.3309 19.5427C10.365 19.5386 10.3988 19.5369 10.4325 19.5369C10.8889 19.5369 11.2717 19.8789 11.3225 20.3329C11.3491 20.5705 11.2817 20.8047 11.1323 20.992Z" fill="#191919"/>
<path d="M14.3652 19.9875C15.0319 18.4875 15.4652 16.3875 19.8652 19.9875C24.2652 23.5875 24.0319 21.4875 24.8652 19.9875" stroke="black" stroke-width="1.5" stroke-linecap="round" stroke-linejoin="round"/>
<path d="M31.2147 20.1595C31.0653 18.8384 29.8703 17.8652 28.5255 18.015C27.8802 18.0878 27.3018 18.4073 26.8965 18.9158C26.4913 19.4238 26.3078 20.0588 26.381 20.7042C26.5196 21.9358 27.5581 22.8641 28.7964 22.8641C28.8871 22.8641 28.9787 22.8591 29.0702 22.8491C29.7156 22.7763 30.294 22.4567 30.6992 21.9486C31.1045 21.4402 31.2876 20.8053 31.2147 20.1595ZM29.4988 20.9904C29.3494 21.1777 29.1364 21.2958 28.8992 21.3221C28.4016 21.3828 27.963 21.0196 27.908 20.5319C27.881 20.2948 27.9488 20.0609 28.0978 19.8737C28.2472 19.6865 28.4606 19.5683 28.6982 19.5417C28.7328 19.5379 28.7669 19.5359 28.8006 19.5359C29.2558 19.5359 29.6374 19.8779 29.6885 20.3319C29.7156 20.5694 29.6478 20.8036 29.4988 20.9904Z" fill="#191919"/>
</g>
<rect x="0.5" y="0.5" width="39" height="39" rx="3.5" stroke="#BDBDBD"/>
<defs>
<clipPath id="clip0_403_1873">
<rect width="24" height="24" fill="white" transform="translate(8 8)"/>
</clipPath>
</defs>
</svg>
