<svg width="24" height="24" viewBox="0 0 24 24" fill="none" xmlns="http://www.w3.org/2000/svg">
<path d="M11.9999 15.1654C10.9115 15.1655 9.82336 14.8993 8.83115 14.3672L1.67655 10.5295C0.639065 9.97307 -0.00322908 8.89698 0.000142428 7.72122C0.00355889 6.54547 0.652102 5.47315 1.69277 4.92265L8.86541 1.12871C10.8282 0.0905591 13.1717 0.0905591 15.1344 1.12871L22.3071 4.92265C23.3477 5.4731 23.9963 6.54542 23.9997 7.72122C24.0031 8.89698 23.3608 9.97307 22.3233 10.5295L15.1686 14.3672C14.1767 14.8993 13.0882 15.1653 11.9999 15.1654ZM11.9999 2.22526C11.2244 2.22526 10.449 2.41222 9.74209 2.78615L2.56954 6.58012C2.13619 6.80934 1.87659 7.23802 1.87519 7.72671C1.8738 8.2154 2.13084 8.64555 2.56289 8.87729L9.71754 12.7149C11.1468 13.4816 12.8533 13.4816 14.2825 12.7149L21.4372 8.87729C21.8693 8.64555 22.1263 8.21544 22.1249 7.72671C22.1235 7.23797 21.8639 6.80934 21.4306 6.58012L14.2577 2.78615C13.5509 2.41227 12.7754 2.22526 11.9999 2.22526ZM9.30379 1.95743H9.30424H9.30379ZM15.1687 22.8514L23.5054 18.3799C23.9617 18.1352 24.1332 17.5669 23.8884 17.1106C23.6437 16.6544 23.0755 16.4829 22.6192 16.7276L14.2824 21.1991C12.8533 21.9657 11.1468 21.9657 9.71386 21.1972L1.37716 16.7725C0.91971 16.5298 0.352263 16.7038 0.109604 17.1611C-0.133144 17.6185 0.0408253 18.1859 0.498181 18.4287L8.8312 22.8514C9.82341 23.3836 10.9115 23.6496 12 23.6496C13.0882 23.6497 14.1767 23.3835 15.1687 22.8514ZM15.1687 18.6328L23.5054 14.1613C23.9617 13.9165 24.1332 13.3482 23.8884 12.892C23.6437 12.4357 23.0755 12.2643 22.6192 12.5089L14.2824 16.9805C12.8533 17.7471 11.1468 17.747 9.71386 16.9785L1.37716 12.5539C0.91971 12.3111 0.352263 12.4852 0.109604 12.9425C-0.133144 13.3998 0.0408253 13.9673 0.498181 14.21L8.8312 18.6327C9.82341 19.1649 10.9115 19.431 12 19.431C13.0882 19.431 14.1767 19.1649 15.1687 18.6328Z" fill="white"/>
</svg>
